<?xml version="1.0" encoding="utf-8"?>
<!-- Generator: Adobe Illustrator 28.1.0, SVG Export Plug-In . SVG Version: 6.00 Build 0)  -->
<svg version="1.1" xmlns="http://www.w3.org/2000/svg" xmlns:xlink="http://www.w3.org/1999/xlink" x="0px" y="0px"
	 viewBox="0 0 292.09 316.6" style="enable-background:new 0 0 292.09 316.6;" xml:space="preserve">
<style type="text/css">
	.st0{fill:#878786;}
	.st1{fill:#12A19A;}
	.st2{fill:url(#SVGID_1_);}
	.st3{fill:url(#SVGID_00000168086609051524012190000000242524521872633758_);}
</style>
<g id="Camada_10">
	<path class="st0" d="M200.43,263.01c0-1.26,0-2.52,0-3.78h-11.62c-0.5,0.06-1.13,0.21-1.7,0.62c-2.38,1.69-2.35,6.69-0.11,8.7
		c0.61,0.55,1.21,0.72,2.19,1c2.07,0.58,4.84,1.32,8.18,2.11c0.78,0.29,1.21,1.1,1.03,1.85c-0.15,0.64-0.73,1.13-1.43,1.19
		c-3.77-0.01-7.53-0.01-11.3-0.02c0,1.18,0,2.37,0,3.55h12.22c1.1-0.05,1.81-0.42,2.18-0.66c2.17-1.42,2.21-4.6,1.74-6.19
		c-0.22-0.76-0.57-1.21-0.66-1.32c-0.58-0.72-1.32-1.03-1.73-1.19c-1.34-0.51-5.05-1.7-10.09-3.12c-0.64-0.32-0.97-1.04-0.8-1.69
		c0.15-0.57,0.64-1,1.24-1.09C193.34,262.99,196.88,263,200.43,263.01z"/>
</g>
<g id="Camada_13">
	<path class="st0" d="M168.64,278.34h3.48l-0.16-15.71h6.93c0.18,0.02,0.52,0.08,0.85,0.32c0.62,0.46,0.68,1.19,0.69,1.31
		c0.04,4.76,0.09,9.51,0.13,14.27h3.35l-0.26-15.16c-0.03-0.37-0.14-1.04-0.57-1.76c-0.51-0.85-1.2-1.29-1.53-1.47
		c-0.34-0.21-0.81-0.45-1.4-0.64c-0.6-0.19-1.13-0.25-1.53-0.27c-2.74,0.05-5.49,0.09-8.23,0.14c-0.24,0.04-0.62,0.14-0.96,0.43
		c-0.74,0.63-0.76,1.72-0.77,2.22C168.63,263.38,168.59,269.66,168.64,278.34z"/>
</g>
<g id="Camada_19">
	<path class="st0" d="M156.73,274.94c-0.26-0.01-0.48-0.07-0.67-0.15c-1.89-0.79-1.79-4.4-1.79-4.56c3.4,0,6.81,0,10.21,0
		c0.74-0.06,1.21-0.3,1.53-0.54c1.9-1.47,1.59-5.88-0.63-8.29c-0.74-0.81-1.5-1.19-2.18-1.51c-0.21-0.1-4.43-2.03-8.26-0.11
		c-0.45,0.23-1.49,0.76-2.43,1.86c-0.17,0.2-0.61,0.73-1.02,1.56c-0.99,1.98-1.08,4.23-1.02,5.68c0.11,3.09,0.23,6.16,2.52,8.04
		c1.25,1.02,2.68,1.32,3.61,1.42c3.38,0,6.77,0,10.15,0l-0.03-3.41H156.73z M154.45,265.03c0.47-1.08,1.29-1.63,1.69-1.88
		c1.2-0.77,2.39-0.79,3-0.8c0.84-0.01,2.04-0.02,3.1,0.83c0.89,0.71,1.2,1.68,1.3,2.01c0.19,0.61,0.21,1.15,0.2,1.51
		c-3.2,0.02-6.4,0.04-9.61,0.06C154.12,266.38,154.15,265.73,154.45,265.03z"/>
</g>
<g id="Camada_12">
	<path class="st0" d="M149.27,262.6v-3.36h-9c-0.74,0.13-1.8,0.42-2.84,1.15c-3.06,2.16-3.2,6.28-3.26,7.87
		c-0.04,1.21-0.23,6.68,3.4,8.94c0.94,0.58,1.88,0.8,2.56,0.88c3.04,0,6.09,0,9.13,0c0-0.99,0-1.98,0-2.97
		c-2.69-0.01-5.38-0.02-8.07-0.03c-0.35-0.05-1.28-0.23-2.04-1.01c-0.37-0.38-0.58-0.78-0.7-1.06c-0.18-0.52-0.35-1.12-0.47-1.81
		c-0.19-1.11-0.2-2.08-0.14-2.85c0.02-0.61,0.1-1.34,0.29-2.15c0.17-0.73,0.38-1.35,0.6-1.87c0.16-0.28,0.48-0.76,1.06-1.15
		c0.79-0.53,1.59-0.57,1.91-0.57C144.22,262.6,146.74,262.6,149.27,262.6z"/>
</g>
<g id="Camada_20">
	<path class="st0" d="M132.38,262.44c-0.1-0.32-0.22-0.59-0.34-0.82c-0.2-0.35-0.52-0.8-1-1.22c-0.9-0.79-1.86-1.06-2.36-1.16H118.3
		v3.28c3.23,0.01,6.47,0.03,9.7,0.04c0.26,0,0.62,0.08,0.94,0.33c0.04,0.04,0.23,0.19,0.39,0.49c0.2,0.39,0.2,0.74,0.19,1.42
		c-0.01,0.65-0.03,1.18-0.05,1.53c-2.73-0.01-5.46-0.02-8.19-0.03c-0.57,0.08-1.39,0.3-2.2,0.86c-1.59,1.11-1.97,2.85-2.14,3.61
		c-0.43,1.9-0.33,5.09,1.85,6.7c0.78,0.58,1.61,0.79,2.19,0.87c3.18,0,6.35,0,9.53,0c0.16,0,0.82,0.01,1.39-0.49
		c0.7-0.61,0.69-1.48,0.69-1.6c0-4.11,0-8.23,0-12.34C132.6,263.53,132.56,263.02,132.38,262.44z M129.12,275.23h-7.57
		c-0.09-0.02-0.24-0.05-0.4-0.15c-1.29-0.77-1.24-4.23,0.19-5.09c0.31-0.19,0.62-0.21,0.72-0.21c2.35,0,4.71,0,7.06,0V275.23z"/>
</g>
<g id="Camada_8">
	<path class="st0" d="M99.83,278.34h3.62v-10.72h10.04v-3.49h-10.13l0.09-6.98h13.87v-3.4h-14.68c-0.19-0.01-1.1-0.03-1.89,0.66
		c-0.84,0.73-0.91,1.72-0.91,1.89C99.83,263.65,99.83,270.99,99.83,278.34z"/>
</g>
<g id="Camada_2">
	<path class="st1" d="M209.02,243.23h8.26c-0.04-11.59-0.09-23.18-0.13-34.77c-0.09-0.56,0.26-1.04,0.68-1.11
		c0.29-0.05,0.61,0.11,0.81,0.38c11.77,19.91,21.42,33.87,23.53,35.06c2.88,1.63,5.36,1.32,5.36,1.32l0,0
		c1.77-0.23,4.11-0.86,5.28-2.72c0.67-1.06,0.72-2.15,0.72-2.6c0-14.1,0-28.2,0-42.3h-8.17c0,11.46,0,22.92,0,34.38
		c-0.11,1.25-0.41,1.48-0.6,1.53c-2.68,0.77-16.42-26.88-23.23-34.17c-0.32-0.34-1.39-1.45-3.11-2.08c-2.46-0.9-6.17-0.76-8.17,1.61
		c-0.8,0.95-1.1,1.98-1.23,2.64C209.02,214.7,209.02,228.96,209.02,243.23z"/>
</g>
<g id="Camada_4">
	<rect x="192.06" y="196.66" class="st1" width="8.81" height="46.66"/>
</g>
<g id="Camada_17">
	<path class="st1" d="M171.17,199.51c-0.23-0.48-0.64-1.21-1.35-1.9c-2.37-2.29-6.62-2.73-9.54-0.83c-0.58,0.38-1.58,1.16-2.38,2.62
		c-6.14,14.64-12.28,29.28-18.42,43.91h9l4.72-11.62l22.85,0.06l4.6,11.55h9.26C183.65,228.72,177.41,214.11,171.17,199.51z
		 M155.71,225.56c1.9-4.86,7.78-19.91,8.36-20.81c0.08-0.12,0.3-0.46,0.57-0.45c0.26,0.01,0.45,0.33,0.51,0.45
		c0.52,0.92,6.87,16.77,8.49,20.81H155.71z"/>
</g>
<g id="Camada_6">
	<path class="st1" d="M104.87,243.38c-2.91,0-5.83,0-8.74,0c0-13.77,0-27.53,0-41.3c-0.04-0.31-0.18-1.86,0.89-3.26
		c1.18-1.53,2.91-1.7,3.19-1.72c9.77,0,19.53,0,29.3,0c0.68,0.06,1.66,0.22,2.74,0.7c1.33,0.59,2.23,1.38,2.74,1.91
		c0.54,0.5,1.25,1.28,1.85,2.36c0.83,1.51,1.07,2.92,1.15,3.77c0.23,2.08,0.36,4.41,0.32,6.96c-0.03,1.8-0.15,3.49-0.32,5.04
		c-0.28,1.08-0.85,2.75-2.11,4.47c-0.99,1.36-2.07,2.28-2.87,2.87c-0.56,0.36-1.35,0.78-2.36,1.09c-0.81,0.24-1.53,0.34-2.11,0.38
		c-2.43,0-4.85,0-7.28,0c6.06,5.55,12.13,11.11,18.19,16.66c-3.79,0-7.57,0-11.36,0c-5.68-5.64-11.36-11.28-17.04-16.91
		c-0.14-0.2-0.33-0.51-0.45-0.93c-0.09-0.31-0.12-0.59-0.13-0.8c-0.07-0.42-0.11-1-0.03-1.66c0.06-0.51,0.17-0.94,0.29-1.28
		c0.1-0.21,0.36-0.64,0.86-0.99c0.51-0.35,1.01-0.43,1.24-0.45c4.28-0.1,8.55-0.19,12.83-0.29c0.36-0.01,1.09-0.11,1.79-0.61
		c0.53-0.37,0.92-0.9,1.28-1.72c0.49-1.14,0.64-2.2,0.73-3.96c0.18-3.52-0.12-5.33-0.26-6.03c-0.3-1.59-0.6-2.15-0.99-2.59
		c-0.89-1-2.15-1.24-2.74-1.31c-6.13-0.04-12.26-0.09-18.38-0.13c-0.18,0-0.89,0.04-1.5,0.61c-0.64,0.59-0.72,1.33-0.73,1.5
		C104.87,218.32,104.87,230.85,104.87,243.38z"/>
</g>
<g id="Camada_18">
	<path class="st1" d="M89.04,226.66c-0.11-0.62-0.33-1.45-0.77-2.36c-0.47-0.97-1.03-1.69-1.47-2.17c-0.45-0.39-1.14-0.91-2.11-1.31
		c-1.15-0.47-2.17-0.57-2.81-0.57c0.89-0.35,2.04-0.92,3.22-1.85c0.73-0.58,1.31-1.17,1.76-1.69c0.47-0.81,1.01-1.94,1.4-3.35
		c0.38-1.39,0.49-2.62,0.51-3.54c0.07-1.04,0.06-2.36-0.19-3.86c-0.32-1.93-0.94-3.48-1.47-4.56c-0.51-0.79-1.59-2.25-3.51-3.35
		c-1.62-0.93-3.13-1.21-4.02-1.31c-9.44,0.05-18.87,0.11-28.31,0.16c-0.48,0.23-1.05,0.58-1.6,1.12c-1.76,1.73-1.87,4.04-1.88,4.72
		v36.26c0,0.33,0.05,1.69,1.12,2.84c0.86,0.92,1.9,1.17,2.27,1.24c10.15,0.11,20.3,0.21,30.45,0.32c0.53-0.06,1.28-0.19,2.11-0.54
		c0.86-0.36,1.5-0.83,1.91-1.18c0.48-0.39,1.24-1.08,1.91-2.11c1.57-2.4,1.63-5.01,1.66-8.65C89.24,229.9,89.22,228.44,89.04,226.66
		z M57.34,204.02c0.27-0.2,0.56-0.26,0.74-0.28c6.13,0.09,12.26,0.17,18.38,0.26c0.25,0.02,1.33,0.15,2.17,1.09
		c0.74,0.83,0.82,1.77,0.83,2.04c0.05,1.12,0.23,1.98,0.16,3.48c-0.17,3.88-0.5,4.39-0.77,4.69c-0.6,0.68-1.41,1.09-2.2,1.09
		c-6.66,0-13.32,0-19.98,0V205.6C56.67,205.51,56.62,204.54,57.34,204.02z M80.23,233.9c-0.07,0.34-0.25,0.98-0.77,1.6
		c-0.77,0.93-1.78,1.18-2.11,1.24c-6.21,0-12.43,0-18.64,0c-0.16-0.01-0.88-0.05-1.46-0.65c-0.48-0.5-0.57-1.08-0.58-1.26v-11.3
		c6.47,0,12.94,0,19.4,0c0.32,0,1.73,0.04,2.9,1.15c0.99,0.93,1.22,2.06,1.28,2.43c0.09,1.29,0.13,2.68,0.1,4.15
		C80.34,232.18,80.3,233.06,80.23,233.9z"/>
</g>
<g id="Camada_16">
	<linearGradient id="SVGID_1_" gradientUnits="userSpaceOnUse" x1="150.2553" y1="106.9787" x2="237.6534" y2="106.9787">
		<stop  offset="8.146966e-08" style="stop-color:#46ACDF"/>
		<stop  offset="1" style="stop-color:#58B88D"/>
	</linearGradient>
	<path class="st2" d="M235.47,121.72c-1.26-3.34-2.73-5.89-3.89-7.66c-4.04-6.15-8.83-9.59-11.17-11.23
		c-2.59-1.82-4.93-3.07-6.64-3.89c1.11-1.13,2.21-2.26,3.32-3.38c1.25-1.55,2.88-3.83,4.34-6.83c2.01-4.13,5.4-13.14,2.87-24
		c-0.7-3.02-3.09-13.28-12.7-19.79c-4.84-3.27-9.63-4.33-12.45-4.72c-12.98,0-25.96,0-38.94,0c-0.97,0.18-5.43,1.11-8.13,5.22
		c-1.31,2-1.7,3.99-1.83,5.19v8.3v0.26h29.4c0.74-2.45,3.03-4.24,5.76-4.24c3.32,0,6.01,2.66,6.01,5.94s-2.69,5.94-6.01,5.94
		c-2.72,0-5.02-1.79-5.76-4.24h-29.4V76c7.25,0,14.5,0,21.74,0c0.3,0.03,0.7,0.1,1.15,0.28c0.42,0.16,0.75,0.37,0.98,0.54l3.74,3.7
		c6.65,0.05,13.29,0.1,19.94,0.15c0.79-2.24,2.91-3.85,5.42-3.85c3.18,0,5.75,2.58,5.75,5.75c0,3.18-2.58,5.75-5.75,5.75
		c-2.46,0-4.56-1.55-5.38-3.72c-11.45-0.01-19.64-0.04-20.49-0.08c-0.55-0.03-1.02-0.21-1.02-0.21c-0.54-0.21-0.9-0.52-1.11-0.72
		l-3.57-3.74h-21.4v27.15h38.3c0.87-2.12,2.96-3.62,5.4-3.62c3.22,0,5.83,2.59,5.83,5.79c0,3.2-2.61,5.79-5.83,5.79
		c-2.54,0-4.7-1.62-5.5-3.87h-38.2v23.48c5.94-0.01,11.87-0.02,17.81-0.02l3.57-3.74c0.2-0.2,0.57-0.51,1.11-0.72
		c0,0,0.48-0.18,1.02-0.21c0.9-0.05,11.52-0.05,26.15-0.01c0.8-2.21,2.91-3.79,5.4-3.79c3.18,0,5.75,2.58,5.75,5.75
		c0,3.18-2.58,5.75-5.75,5.75c-2.47,0-4.57-1.56-5.39-3.75c-8.55,0.02-17.1,0.03-25.65,0.05l-3.74,3.7
		c-0.23,0.17-0.56,0.37-0.98,0.54c0,0-0.54,0.21-1.15,0.28c-0.74,0.08-7.86,0.09-18.15,0.03v13.7h31.77
		c0.87-2.12,2.96-3.62,5.4-3.62c3.22,0,5.83,2.59,5.83,5.79c0,3.2-2.61,5.79-5.83,5.79c-2.54,0-4.7-1.62-5.5-3.87h-31.67v0.02
		c0,2.21,0,4.43,0,6.64c0.07,1.15,0.38,3.62,2.11,6c0.88,1.21,1.86,2.03,2.62,2.55c0.71,0.52,1.75,1.17,3.13,1.66
		c1.36,0.49,2.58,0.65,3.45,0.7c14.23,0,28.47,0,42.7,0c2.37-0.17,5.74-0.66,9.51-2.11c7-2.68,11.18-7.03,13.09-9.06
		c8.29-8.83,10.04-19.08,10.47-22.4C238.36,132.16,236.77,125.59,235.47,121.72z"/>
</g>
<g id="Camada_15">
	
		<linearGradient id="SVGID_00000145750114510454851410000009097962759326179240_" gradientUnits="userSpaceOnUse" x1="66.0536" y1="106.9679" x2="141.3617" y2="106.9679">
		<stop  offset="8.146966e-08" style="stop-color:#46ACDF"/>
		<stop  offset="1" style="stop-color:#58B88D"/>
	</linearGradient>
	<path style="fill:url(#SVGID_00000145750114510454851410000009097962759326179240_);" d="M139.4,49.4c-0.73-1.51-1.55-2.74-2.3-3.7
		c-1.11-1.24-3.02-3.07-5.87-4.47c-1.99-0.97-3.82-1.43-5.19-1.66c-1.78-0.08-4.14,0-6.81,0.64c-1.62,0.39-3.01,0.89-4.17,1.4
		c-1.44,0.83-3.57,2.3-5.53,4.72c-2.23,2.76-3.24,5.51-3.73,7.28h6.16c0.98-1.95,3.05-3.3,5.46-3.3c3.35,0,6.06,2.6,6.06,5.81
		s-2.71,5.81-6.06,5.81c-2.61,0-4.83-1.58-5.68-3.79H87.17c-3.26,2.07-5.43,4.38-6.62,5.81c-0.89,1.25-2.24,3.39-3.27,6.28h19.44
		c0.86-2.21,3.07-3.79,5.68-3.79c3.35,0,6.06,2.6,6.06,5.81s-2.71,5.81-6.06,5.81c-2.61,0-4.83-1.58-5.68-3.79H76.21
		c-0.09,0.51-0.19,1.02-0.25,1.56c-0.46,3.87,0.05,7.27,0.81,9.94h46.8c0.86-2.21,3.07-3.79,5.68-3.79c3.35,0,6.06,2.6,6.06,5.81
		s-2.71,5.81-6.06,5.81c-2.61,0-4.83-1.58-5.68-3.79h-45.3c0.28,0.6,0.54,1.1,0.75,1.47c-1.8,0.79-5.11,2.52-8.04,6
		c-0.05,0.06-0.09,0.11-0.13,0.17h10.09c0.21,0.01,0.55,0.04,0.94,0.21c0.43,0.19,0.71,0.46,0.85,0.62
		c1.19,1.25,2.38,2.51,3.57,3.76l25.34,0.08c0.84-2.24,3.07-3.84,5.7-3.84c3.35,0,6.06,2.6,6.06,5.81s-2.71,5.81-6.06,5.81
		c-2.59,0-4.79-1.55-5.66-3.74c-8.4-0.06-16.79-0.12-25.19-0.19c-0.3,0-0.75-0.03-1.26-0.21c-0.41-0.14-0.72-0.33-0.94-0.49
		c-1.35-1.33-2.7-2.67-4.04-4H68.31c-1.22,2.35-1.79,4.44-2.05,5.7c-0.29,2.2-0.66,7.38,1.91,13.15c1.87,4.2,4.53,6.98,6.45,8.63
		h4.97c1.35-1.33,2.7-2.67,4.04-4c0.22-0.16,0.53-0.35,0.94-0.49c0.54-0.19,1.01-0.21,1.26-0.21c0.89-0.01,16.31,0.08,37.58,0.22
		c0.75-2.39,3.06-4.14,5.81-4.14c3.35,0,6.06,2.6,6.06,5.81c0,3.21-2.71,5.81-6.06,5.81c-2.6,0-4.81-1.57-5.67-3.77
		c-12.64,0-25.27,0.01-37.91,0.01c-1.19,1.25-2.38,2.51-3.57,3.76c-0.14,0.16-0.42,0.43-0.85,0.62c-0.38,0.17-0.73,0.21-0.94,0.21
		h-4.51c-0.1,1.42-0.21,2.85-0.31,4.27c0.07,0.78,0.22,1.99,0.56,3.45h20.76c0.86-2.21,3.07-3.79,5.68-3.79
		c3.35,0,6.06,2.6,6.06,5.81s-2.71,5.81-6.06,5.81c-2.61,0-4.83-1.58-5.68-3.79H77.34c0.79,1.83,1.89,3.78,3.47,5.67
		c2.93,3.52,6.24,5.38,8.26,6.31c7.62,0.04,15.25,0.09,22.87,0.13c0.81-2.29,3.07-3.95,5.74-3.95c3.35,0,6.06,2.6,6.06,5.81
		c0,3.21-2.71,5.81-6.06,5.81c-2.49,0-4.62-1.44-5.56-3.49c-2.01-0.01-4.01-0.02-6.02-0.03c0.24,1.55,0.9,4.43,3.04,7.29
		c3.08,4.09,7.2,5.47,8.64,5.87c1.77,0.37,4.04,0.69,6.68,0.64c2.17-0.04,4.07-0.31,5.62-0.64c1.55-0.5,4.14-1.58,6.51-3.96
		c4.42-4.43,4.73-10.05,4.77-11.49V56.34C141.18,54.58,140.7,52.1,139.4,49.4z"/>
</g>
</svg>
